<svg width="18" height="18" viewBox="0 0 18 18" fill="none" xmlns="http://www.w3.org/2000/svg">
<path d="M15.9456 7.61281H15.375V7.58342H9.00002V10.4167H13.0032C12.4191 12.0661 10.8498 13.2501 9.00002 13.2501C6.65296 13.2501 4.75002 11.3471 4.75002 9.00008C4.75002 6.65302 6.65296 4.75008 9.00002 4.75008C10.0834 4.75008 11.0691 5.15879 11.8195 5.82639L13.8231 3.82287C12.558 2.64385 10.8658 1.91675 9.00002 1.91675C5.08825 1.91675 1.91669 5.08831 1.91669 9.00008C1.91669 12.9119 5.08825 16.0834 9.00002 16.0834C12.9118 16.0834 16.0834 12.9119 16.0834 9.00008C16.0834 8.52514 16.0345 8.06154 15.9456 7.61281Z" fill="#FFC107"/>
<path d="M2.7334 5.70314L5.06063 7.40987C5.69034 5.85083 7.21538 4.75008 9.00002 4.75008C10.0834 4.75008 11.0691 5.15879 11.8195 5.82639L13.8231 3.82287C12.558 2.64385 10.8658 1.91675 9.00002 1.91675C6.27932 1.91675 3.91986 3.45277 2.7334 5.70314Z" fill="#FF3D00"/>
<path d="M9.00003 16.0833C10.8297 16.0833 12.4921 15.3831 13.7491 14.2445L11.5568 12.3894C10.8217 12.9484 9.9235 13.2507 9.00003 13.25C7.15765 13.25 5.5933 12.0752 5.00397 10.4358L2.69409 12.2155C3.86638 14.5094 6.24709 16.0833 9.00003 16.0833Z" fill="#4CAF50"/>
<path d="M15.9456 7.61265H15.375V7.58325H9V10.4166H13.0031C12.7238 11.2016 12.2206 11.8875 11.5557 12.3896L11.5567 12.3889L13.749 14.2441C13.5939 14.385 16.0833 12.5416 16.0833 8.99992C16.0833 8.52498 16.0345 8.06138 15.9456 7.61265Z" fill="#1976D2"/>
</svg>
